<svg width="26" height="22" viewBox="0 0 26 22" fill="none" xmlns="http://www.w3.org/2000/svg">
<path d="M22.9302 5.98024C22.946 6.20231 22.946 6.42443 22.946 6.6465C22.946 13.4199 17.7906 21.2245 8.36802 21.2245C5.46509 21.2245 2.76841 20.3838 0.5 18.9244C0.912451 18.972 1.30898 18.9879 1.7373 18.9879C4.13257 18.9879 6.33755 18.1789 8.09834 16.7988C5.8458 16.7512 3.95811 15.2759 3.30771 13.2455C3.625 13.293 3.94224 13.3248 4.27539 13.3248C4.7354 13.3248 5.19546 13.2613 5.62373 13.1503C3.27603 12.6744 1.51519 10.6122 1.51519 8.12174V8.05831C2.19727 8.43903 2.99048 8.67697 3.83115 8.70865C2.45107 7.78859 1.54692 6.21818 1.54692 4.44152C1.54692 3.48976 1.80068 2.6173 2.24487 1.85587C4.76709 4.965 8.55835 6.99542 12.8096 7.21754C12.7303 6.83683 12.6827 6.4403 12.6827 6.04371C12.6827 3.22008 14.9669 0.919983 17.8064 0.919983C19.2816 0.919983 20.6141 1.53864 21.55 2.538C22.708 2.31593 23.8184 1.88761 24.802 1.3007C24.4212 2.49044 23.6122 3.48981 22.5494 4.12428C23.5805 4.01329 24.5799 3.7277 25.4999 3.33116C24.802 4.34635 23.9295 5.2505 22.9302 5.98024Z" fill="white"/>
</svg>
